<svg width="72" height="106" viewBox="0 0 72 106" fill="none" xmlns="http://www.w3.org/2000/svg">
<path d="M59.1415 27.9865L59.6067 22.0046L61.6007 22.1596L61.1355 28.1415L67.1175 28.6067L66.9624 30.6006L60.9805 30.1355L60.5154 36.1175L58.5214 35.9624L58.9865 29.9805L53.0046 29.5154L53.1596 27.5214L59.1415 27.9865Z" fill="#FFFCFC"/>
<ellipse cx="30" cy="44" rx="30" ry="28" fill="#FFFCFC"/>
<path d="M25.1568 36.5511C24.4601 36.5569 23.6365 36.7288 22.686 37.0667C21.7718 37.3676 20.7133 37.9631 19.5107 38.8531C18.3081 39.7432 16.9254 41.038 15.3628 42.7377L12.4278 60.1977L7.91796 60.2352L14.7295 19.4772L19.2394 19.4397L16.2008 37.6706C18.2727 35.49 20.1309 34.0628 21.7754 33.3891C23.4562 32.6785 24.9749 32.3175 26.3315 32.3062C28.8615 32.2852 30.7205 33.1681 31.9087 34.955C33.097 36.7418 33.4466 39.104 32.9577 42.0415L29.9172 60.0524L25.4074 60.0899L28.341 42.4649C28.7279 40.4816 28.6239 38.9974 28.029 38.0123C27.4708 37.0269 26.5134 36.5399 25.1568 36.5511Z" fill="#0096D6"/>
<path d="M43.025 60.55C41.7783 60.55 40.5867 60.4033 39.45 60.11C38.3133 59.8167 37.195 59.4133 36.095 58.9L33.84 71.715H29.33L36.26 32.775H40.495L39.615 37.725C41.375 35.6717 43.0433 34.2417 44.62 33.435C46.1967 32.6283 47.6817 32.225 49.075 32.225C50.9083 32.225 52.4117 32.7933 53.585 33.93C54.7583 35.0667 55.565 36.625 56.005 38.605C56.4817 40.585 56.5367 42.84 56.17 45.37L55.785 48.01C55.1983 52.0067 53.8233 55.105 51.66 57.305C49.4967 59.4683 46.6183 60.55 43.025 60.55ZM47.81 36.35C46.6733 36.35 45.3533 36.8633 43.85 37.89C42.3467 38.9167 40.6783 40.695 38.845 43.225L36.81 54.885C38.8267 55.9483 40.7883 56.48 42.695 56.48C45.1883 56.48 47.1133 55.7283 48.47 54.225C49.8633 52.685 50.7433 50.6133 51.11 48.01L51.495 45.37C51.8983 42.4733 51.7883 40.255 51.165 38.715C50.5417 37.1383 49.4233 36.35 47.81 36.35Z" fill="#0096D6"/>
</svg>
