<svg id="Layer_1" data-name="Layer 1" xmlns="http://www.w3.org/2000/svg" viewBox="0 0 180 180"><defs><style>.cls-1{fill:#0096d6;}</style></defs><title>Device_Icons_180px_svg</title><path class="cls-1" d="M90,3A87,87,0,1,1,3,90,87.1,87.1,0,0,1,90,3m0-3a90,90,0,1,0,90,90A90,90,0,0,0,90,0Z"/><path class="cls-1" d="M133.71,103.6V52.74a6.5,6.5,0,0,0-6.5-6.5H42.79V103.5l-9.48,21.1a6.5,6.5,0,0,0,5.93,9.16h108Zm-6.5-54.36a3.5,3.5,0,0,1,3.5,3.5v49.81H45.79V49.24ZM36.3,129.16a3.41,3.41,0,0,1-.25-3.33l9.11-20.28H131.3l11.33,25.21H39.24A3.44,3.44,0,0,1,36.3,129.16Z"/></svg>