<svg id="Layer_1" data-name="Layer 1" xmlns="http://www.w3.org/2000/svg" viewBox="0 0 180 180"><defs><style>.cls-1{fill:#0096d6;}</style></defs><title>Device_Icons_180px_svg</title><path class="cls-1" d="M90,3A87,87,0,1,1,3,90,87.1,87.1,0,0,1,90,3m0-3a90,90,0,1,0,90,90A90,90,0,0,0,90,0Z"/><path class="cls-1" d="M140.38,49.31A238.52,238.52,0,0,0,34.65,50.45l-1.15.27v70.19a5.42,5.42,0,0,0,2,4.32,5.64,5.64,0,0,0,4.8,1,233.92,233.92,0,0,1,39.93-5.1v11.93H63.65v3h53v-3H100.12V121.16a234.23,234.23,0,0,1,44.53,6.21l1.85.44V56.91A8,8,0,0,0,140.38,49.31ZM97.12,133.07H83.19v-12q7-.19,13.93,0ZM143.5,124a238.5,238.5,0,0,0-103.88-.7,2.66,2.66,0,0,1-2.28-.41,2.5,2.5,0,0,1-.84-2V53.09a235.54,235.54,0,0,1,103.24-.85,5.07,5.07,0,0,1,3.76,4.67Z"/></svg>