<svg id="Layer_1" data-name="Layer 1" xmlns="http://www.w3.org/2000/svg" viewBox="0 0 180 180"><defs><style>.cls-1{fill:#0096d6;}</style></defs><title>Device_Icons_180px_svg</title><path class="cls-1" d="M90,3A87,87,0,1,1,3,90,87.1,87.1,0,0,1,90,3m0-3a90,90,0,1,0,90,90A90,90,0,0,0,90,0Z"/><path class="cls-1" d="M114.67,136.27H42.17a6,6,0,0,1-5.59-8.18l4.1-10.51h62.26a6.47,6.47,0,0,1,6,4.14ZM42.73,120.58l-3.35,8.6a3,3,0,0,0,2.79,4.09h68.11l-4.08-10.46a3.49,3.49,0,0,0-3.26-2.23Z"/><path class="cls-1" d="M118.37,50.23a6.51,6.51,0,0,0-6.5-6.5h-82v54a6.51,6.51,0,0,0,6.5,6.5H65.87v10.34h3V104.24H79.36v10.34h3V104.24h36Zm-3,51h-79a3.5,3.5,0,0,1-3.5-3.5v-51h79a3.51,3.51,0,0,1,3.5,3.5Z"/><path class="cls-1" d="M143.62,70H123.46v48.43a6.51,6.51,0,0,0,6.5,6.5h20.16V76.45A6.51,6.51,0,0,0,143.62,70Zm3.5,51.93h-8.83V80.53h-3v41.35H130a3.5,3.5,0,0,1-3.5-3.5V73h17.16a3.5,3.5,0,0,1,3.5,3.5Z"/></svg>