<svg id="Layer_1" data-name="Layer 1" xmlns="http://www.w3.org/2000/svg" viewBox="0 0 180 180"><defs><style>.cls-1{fill:#0096d6;}</style></defs><title>Device_Icons_180px_svg</title><path class="cls-1" d="M90,3A87,87,0,1,1,3,90,87.1,87.1,0,0,1,90,3m0-3a90,90,0,1,0,90,90A90,90,0,0,0,90,0Z"/><path class="cls-1" d="M90,3A87,87,0,1,1,3,90,87.1,87.1,0,0,1,90,3m0-3a90,90,0,1,0,90,90A90,90,0,0,0,90,0Z"/><path class="cls-1" d="M134.5,52.5H122v-12H58v12H39V100a6.51,6.51,0,0,0,6.5,6.5H55v-3H45.5A3.5,3.5,0,0,1,42,100V55.5h92.5A3.5,3.5,0,0,1,138,59v44.5H125v3h16V59A6.51,6.51,0,0,0,134.5,52.5ZM61,43.5h58v9H61Z"/><path class="cls-1" d="M58,120.69,75.34,139.5H122v-53H58Zm17,14L62.83,121.5H71.5A3.5,3.5,0,0,1,75,125Zm44-45.2v47H78V125a6.51,6.51,0,0,0-6.5-6.5H61v-29Z"/><rect class="cls-1" x="69" y="98.5" width="42" height="3"/><rect class="cls-1" x="69" y="110.5" width="42" height="3"/></svg>