<svg width="100" height="100" viewBox="0 0 100 100" fill="none" xmlns="http://www.w3.org/2000/svg">
<g clip-path="url(#clip0_17_13)">
<path d="M99.9 50C99.9 22.4399 77.5601 0.099959 50 0.099959C49.2485 0.099959 48.5009 0.118934 47.7571 0.15309L37.5501 28.2065H46.4402C51.7287 28.2065 54.5788 32.2787 52.7685 37.2522L40.1782 71.8522L29.607 71.8503L43.1175 34.7645H35.1687L21.6581 71.8503H11.083L26.9694 28.2065H26.9713L36.5273 1.94249C15.5138 7.82111 0.0999756 27.1098 0.0999756 50C0.0999756 73.5695 16.4436 93.3211 38.4154 98.5451L47.6755 73.097H47.6831L64.0191 28.2065H83.4899C88.7841 28.2065 91.6323 32.2787 89.8221 37.2522L78.7593 67.6415C77.9168 69.9565 75.2128 71.8503 72.7498 71.8503H58.7154L48.518 99.8772C49.0095 99.8905 49.5047 99.9 50 99.9C77.5601 99.9 99.9 77.5582 99.9 50Z" fill="#0096D6"/>
<path d="M80.1938 34.7379H72.2488L61.1215 65.2677H69.0666L80.1938 34.7379Z" fill="#0096D6"/>
</g>
<defs>
<clipPath id="clip0_17_13">
<rect width="100" height="100" fill="white"/>
</clipPath>
</defs>
</svg>
